<?xml version="1.0" standalone="no"?>
<!DOCTYPE svg PUBLIC "-//W3C//DTD SVG 20010904//EN"
 "http://www.w3.org/TR/2001/REC-SVG-20010904/DTD/svg10.dtd">
<svg version="1.0" xmlns="http://www.w3.org/2000/svg"
 width="3324.000000pt" height="3040.000000pt" viewBox="0 0 3324.000000 3040.000000"
 preserveAspectRatio="xMidYMid meet">
<metadata>
Created by potrace 1.16, written by Peter Selinger 2001-2019
</metadata>
<g transform="translate(0.000000,3040.000000) scale(0.100000,-0.100000)"
fill="#000000" stroke="none">
<path d="M5399 27781 c-131 -33 -212 -85 -287 -189 -43 -60 -52 -81 -76 -183
l-27 -116 325 -1994 c179 -1097 337 -2043 352 -2104 23 -96 32 -118 76 -177
29 -40 77 -87 116 -116 59 -42 81 -52 182 -75 l115 -27 810 0 810 0 115 27
c94 22 125 34 168 65 l52 39 53 -39 c43 -32 72 -44 167 -66 l115 -26 795 0
795 0 115 27 c104 24 122 32 187 79 92 68 156 156 179 247 l17 67 42 -57 c67
-89 259 -226 368 -262 81 -26 303 -78 392 -90 39 -6 270 -11 518 -11 246 0
447 -2 447 -5 0 -3 -9 -24 -20 -46 -11 -21 -37 -106 -58 -187 l-37 -147 -3
-424 -3 -424 26 -110 c16 -64 37 -126 52 -148 24 -37 25 -40 10 -76 -8 -21
-31 -109 -51 -195 l-37 -157 4 -853 3 -853 35 -135 c45 -170 60 -203 148 -322
118 -160 290 -275 481 -323 302 -77 130 -69 1505 -72 1176 -3 1234 -3 1310 15
74 18 84 18 135 4 46 -13 151 -16 641 -19 l587 -4 5 -187 c4 -178 6 -195 45
-345 26 -100 50 -173 66 -198 14 -21 26 -41 26 -44 0 -3 -114 -5 -252 -5 -239
0 -259 -1 -368 -27 -107 -25 -120 -30 -194 -85 l-79 -59 -51 24 c-28 13 -73
31 -101 40 -77 25 -342 85 -431 98 -98 14 -384 5 -510 -15 -125 -21 -417 -92
-467 -114 l-42 -18 -60 27 c-74 35 -360 105 -492 120 -107 13 -365 7 -473 -11
-36 -6 -116 -22 -178 -36 -100 -23 -115 -24 -130 -12 -9 8 -69 27 -132 42
l-115 26 -641 0 -642 0 -119 -28 c-95 -23 -129 -36 -170 -66 -51 -36 -52 -37
-83 -21 -17 9 -117 37 -223 63 l-192 47 -1000 0 -1000 0 -189 -47 c-207 -52
-264 -76 -382 -163 -110 -81 -137 -107 -215 -216 -83 -117 -89 -130 -136 -316
l-38 -148 0 -865 0 -865 37 -145 c20 -80 42 -158 48 -174 9 -24 7 -33 -13 -60
-15 -19 -34 -74 -51 -147 l-27 -117 3 -428 4 -429 37 -148 c20 -81 48 -169 61
-195 48 -95 161 -235 233 -288 117 -87 191 -132 256 -153 88 -29 312 -79 404
-92 51 -6 410 -9 1023 -7 l945 3 160 38 c88 22 190 49 226 61 l67 22 51 -37
c41 -30 74 -42 164 -63 l112 -26 655 0 c610 0 660 2 728 19 72 19 74 19 153 0
74 -18 123 -19 640 -19 l559 0 0 -132 c0 -117 5 -152 35 -283 42 -178 59 -216
164 -357 85 -113 133 -156 296 -267 115 -77 190 -107 394 -159 l146 -36 1185
-4 c1173 -3 1186 -3 1277 18 91 21 91 21 166 2 l75 -20 85 87 c122 126 180
175 287 246 112 73 177 108 280 146 l75 28 -362 1 -363 0 0 2615 0 2615 650 0
650 0 0 -2120 0 -2120 1620 0 1620 0 0 -495 0 -495 -1642 0 -1643 -1 83 -39
c154 -73 290 -198 369 -338 103 -183 127 -450 62 -691 -61 -230 -219 -498
-484 -826 -99 -122 -155 -185 -307 -340 -65 -67 -118 -124 -118 -128 0 -33
220 50 345 129 166 105 435 367 626 609 52 67 209 278 279 378 89 126 57 462
-65 661 l-43 71 329 3 c181 1 329 6 329 10 0 4 10 19 23 34 12 14 49 58 81 98
97 119 257 234 388 279 235 81 478 25 665 -151 171 -163 211 -419 133 -850
-31 -173 -36 -218 -22 -218 18 0 128 128 233 270 181 245 172 229 165 274 -9
56 -43 140 -83 204 l-33 52 164 0 164 0 103 158 c208 319 250 391 334 565 l65
134 0 332 c0 324 -1 335 -26 434 -14 55 -35 114 -46 130 -20 28 -20 30 -4 85
9 32 30 114 46 184 l30 127 0 433 c0 326 -3 445 -13 483 -11 41 -11 59 0 100
10 40 13 268 13 1110 l0 1060 -40 162 c-45 186 -63 226 -159 353 -53 71 -92
110 -168 167 -125 94 -192 127 -326 160 -102 24 -108 27 -101 47 4 12 10 244
12 516 3 434 1 505 -13 576 -16 76 -16 87 -1 152 14 64 16 310 16 2549 l0
2478 -28 115 c-23 97 -34 125 -72 178 -26 37 -71 82 -110 110 -57 42 -79 51
-180 75 l-115 27 -663 -2 -662 -3 0 130 c0 81 -6 154 -15 194 -14 58 -14 72 0
132 22 98 23 2067 1 2181 -29 149 -69 295 -97 348 -55 108 -158 230 -254 302
-143 108 -199 132 -417 186 l-193 47 -990 0 -990 0 -188 -44 -188 -44 -27 20
c-15 10 -79 31 -142 46 l-115 27 -677 0 -677 0 -99 -24 -99 -24 -99 24 -99 24
-621 0 -622 0 -119 -28 c-95 -23 -129 -36 -170 -66 -51 -36 -52 -37 -83 -21
-17 9 -117 37 -223 63 l-192 47 -995 0 -995 0 -179 -43 c-178 -44 -179 -44
-205 -25 -14 11 -78 31 -141 46 l-115 27 -620 0 -620 0 -115 -26 c-94 -22
-124 -34 -166 -64 l-50 -38 -49 36 c-39 27 -74 41 -168 64 l-119 28 -642 0
-641 0 -116 -28 c-92 -23 -127 -36 -165 -64 l-49 -36 -50 35 c-39 29 -74 42
-168 65 l-119 28 -672 -1 -671 -1 -106 -27z m1473 -578 c9 -54 82 -552 164
-1107 103 -694 151 -1000 156 -980 4 16 75 499 158 1074 83 575 153 1060 156
1078 l6 32 648 0 648 0 10 -70 c6 -38 77 -537 158 -1109 81 -573 148 -1040
150 -1038 1 1 75 500 165 1110 l163 1107 628 0 c345 0 628 -3 628 -7 1 -5
-144 -902 -322 -1995 l-323 -1988 -805 0 -806 0 -159 980 c-88 539 -162 976
-166 972 -3 -4 -77 -437 -163 -962 -86 -525 -159 -963 -162 -973 -5 -16 -51
-17 -822 -15 l-816 3 -323 1980 c-177 1089 -323 1986 -323 1993 0 9 140 12
669 12 l668 0 15 -97z m6553 69 c188 -53 290 -138 348 -290 l22 -57 3 -1808 2
-1808 -1237 3 -1238 3 -78 22 c-205 58 -323 173 -357 348 -8 43 -10 300 -8
910 l3 850 23 58 c46 113 153 212 270 251 140 47 160 48 755 53 l567 5 0 244
0 244 -160 0 -160 0 0 -120 0 -120 -650 0 -650 0 0 408 c0 433 5 483 51 574
67 131 229 225 434 251 17 3 469 4 1005 3 l975 -1 80 -23z m1945 -474 l1 -503
191 503 192 502 684 0 c647 0 684 -1 679 -17 -3 -10 -202 -441 -443 -958 -240
-517 -437 -944 -437 -950 0 -5 208 -470 462 -1033 253 -562 461 -1024 461
-1027 0 -3 -308 -5 -684 -5 l-685 0 -210 528 -210 527 0 -527 -1 -528 -630 0
-630 0 0 1995 0 1995 630 0 630 0 0 -502z m4475 474 c188 -53 290 -138 348
-290 l22 -57 3 -1062 3 -1063 -811 0 -810 0 0 -250 0 -251 158 3 157 3 3 123
3 122 649 0 650 0 0 -404 c0 -232 -4 -426 -10 -457 -34 -180 -168 -307 -377
-356 -73 -17 -146 -18 -1073 -18 -927 0 -1000 1 -1073 18 -207 49 -339 170
-376 345 -8 38 -11 507 -11 1625 0 1717 -2 1640 57 1750 68 124 229 215 428
240 17 3 469 4 1005 3 l975 -1 80 -23z m2223 -5959 c-3 -2206 -5 -2487 -18
-2483 -8 3 -564 7 -1235 10 -1368 7 -1275 1 -1444 82 -102 49 -160 104 -192
184 l-24 59 -3 1605 c-2 1204 0 1619 9 1660 36 170 158 287 356 342 75 21 98
22 660 26 l582 3 6 52 c4 29 5 253 3 500 l-3 447 653 0 652 0 -2 -2487z
m-6833 1459 c188 -53 290 -138 348 -290 l22 -57 3 -1808 2 -1808 -22 15 c-20
14 -145 16 -1185 16 -778 0 -1187 4 -1239 11 -180 25 -354 111 -414 205 -61
96 -61 101 -58 1039 l3 850 23 58 c46 113 153 212 270 251 140 47 160 48 755
53 l567 5 0 241 c0 210 -2 243 -17 259 -14 16 -32 18 -142 18 -89 -1 -131 -5
-143 -14 -15 -11 -18 -31 -18 -135 l0 -122 -22 15 c-20 14 -96 16 -628 16
-532 0 -608 -2 -628 -16 l-22 -15 0 408 c0 434 5 484 51 575 67 131 229 225
434 251 17 3 469 4 1005 3 l975 -1 80 -23z m1985 -97 c0 -69 2 -125 4 -125 1
0 34 20 71 45 124 81 306 145 520 182 150 25 543 25 640 -1 192 -51 299 -139
362 -296 17 -42 18 -154 23 -1980 l5 -1935 1613 -3 1612 -2 -2 -488 c-3 -428
-5 -486 -18 -482 -8 3 -922 7 -2030 10 -1823 5 -2021 7 -2081 22 -89 22 -160
53 -241 104 -71 45 -101 84 -134 169 -18 49 -19 106 -22 1977 l-2 1928 -25 16
c-32 21 -252 17 -278 -5 -16 -12 -17 -131 -17 -1507 l0 -1494 -23 15 c-21 13
-99 15 -633 13 -335 -2 -617 -7 -626 -12 -17 -8 -18 90 -18 1983 l0 1991 650
0 650 0 0 -125z m-6085 -5673 c164 -46 271 -124 324 -235 47 -98 51 -148 51
-579 l0 -398 -650 0 -650 0 0 120 0 120 -160 0 -160 0 2 -247 3 -248 585 -5
c561 -6 588 -7 663 -28 202 -56 324 -176 357 -351 14 -73 14 -1659 0 -1732
-34 -180 -168 -307 -377 -356 -73 -17 -146 -18 -1073 -18 -927 0 -1000 1
-1073 18 -207 49 -339 170 -376 345 -7 34 -11 200 -11 462 l0 410 650 0 650 0
0 -125 0 -126 158 3 157 3 0 245 0 245 -585 6 c-554 5 -589 7 -658 26 -149 43
-260 121 -315 220 -57 105 -57 104 -57 1003 0 899 0 898 57 1003 68 124 229
215 428 240 17 3 469 4 1005 3 l975 -1 80 -23z m1985 -97 l0 -124 64 48 c111
84 258 142 451 177 126 23 505 27 600 6 170 -37 289 -103 390 -215 l57 -62 31
36 c86 98 212 172 352 207 151 38 234 46 465 46 212 0 231 -2 324 -27 237 -64
413 -201 483 -377 17 -42 18 -153 23 -1935 l5 -1890 808 -3 807 -2 0 -495 0
-495 -1167 0 c-1278 0 -1228 -2 -1376 60 -151 63 -268 165 -330 290 l-32 65
-3 1908 -2 1907 -163 -2 -162 -3 -3 -1492 -2 -1493 -650 0 -650 0 0 1495 0
1496 -157 -3 -158 -3 -3 -1492 -2 -1493 -650 0 -650 0 0 1995 0 1995 650 0
650 0 0 -125z m4860 -1870 l0 -1995 -650 0 -650 0 0 1995 0 1995 650 0 650 0
0 -1995z m4483 1968 c193 -55 306 -157 354 -318 16 -55 18 -139 21 -1107 l3
-1048 -811 0 -810 0 0 -250 0 -250 155 0 155 0 0 125 0 125 655 0 655 0 0
-377 c-1 -441 -6 -500 -55 -600 -60 -121 -155 -190 -328 -236 -82 -22 -86 -22
-1082 -22 l-1000 0 -85 23 c-197 52 -308 147 -357 307 -17 57 -18 137 -18
1650 0 1522 1 1593 19 1658 50 183 184 289 420 332 56 11 278 13 1051 12 978
-2 980 -2 1058 -24z"/>
<path d="M12187 24923 c-4 -3 -7 -143 -7 -310 l0 -303 160 0 160 0 0 310 0
310 -153 0 c-85 0 -157 -3 -160 -7z"/>
<path d="M18600 26020 l0 -280 160 0 160 0 0 280 0 280 -160 0 -160 0 0 -280z"/>
<path d="M20473 21815 l-23 -16 0 -1000 0 -999 154 0 153 0 7 38 c3 20 6 470
6 998 0 881 -1 963 -17 975 -26 22 -251 25 -280 4z"/>
<path d="M14020 20447 l-25 -13 -3 -312 -2 -312 160 0 160 0 0 309 c0 275 -2
310 -17 322 -23 20 -239 25 -273 6z"/>
<path d="M21220 15750 l0 -280 155 0 155 0 0 280 0 280 -155 0 -155 0 0 -280z"/>
<path d="M24400 12781 c0 -6 4 -13 10 -16 19 -12 59 -165 70 -270 18 -164 -6
-331 -81 -560 -22 -69 -39 -131 -37 -137 2 -6 42 31 88 83 107 119 171 179
293 276 l98 78 -7 50 c-10 78 -43 193 -69 244 -52 102 -188 208 -315 247 -54
16 -50 16 -50 5z"/>
<path d="M26540 12112 c0 -4 4 -12 9 -17 6 -6 26 -42 45 -82 67 -135 105 -331
109 -563 2 -89 5 -110 16 -108 13 3 85 87 176 208 22 29 53 68 68 86 29 34 29
34 13 80 -42 123 -150 263 -250 323 -61 36 -186 86 -186 73z"/>
<path d="M11295 11993 c68 -69 157 -218 204 -343 11 -30 32 -104 47 -165 24
-96 27 -131 28 -280 0 -197 -16 -316 -69 -490 -66 -215 -131 -355 -263 -560
-145 -224 -377 -437 -592 -542 -170 -83 -368 -118 -525 -91 -49 8 -92 13 -95
11 -3 -3 25 -33 62 -68 73 -69 188 -132 289 -158 l57 -15 143 116 c298 239
340 264 508 308 108 28 179 30 271 8 l65 -15 39 43 c134 150 289 424 364 643
67 196 91 321 99 510 13 328 -84 629 -275 853 -66 77 -193 176 -287 222 -95
47 -107 49 -70 13z"/>
<path d="M27894 11603 c94 -142 101 -323 19 -488 -54 -108 -211 -328 -371
-518 -40 -49 -72 -90 -70 -93 3 -2 81 0 174 6 93 5 215 10 271 10 l101 0 55
73 c179 238 247 380 247 516 0 143 -53 263 -164 374 -65 65 -187 138 -254 152
l-34 7 26 -39z"/>
<path d="M10337 11210 c-403 -150 -920 -551 -1436 -1115 -619 -678 -1048
-1355 -1198 -1894 -22 -80 -27 -117 -27 -227 -1 -126 0 -132 29 -189 39 -75
89 -105 179 -105 34 0 77 3 97 6 l36 6 6 92 c11 165 85 390 216 659 255 518
676 1084 1223 1641 98 100 120 129 139 179 70 186 241 329 423 354 39 5 70 21
156 82 59 42 141 97 182 122 73 45 76 49 101 115 15 38 31 89 36 114 14 62 14
163 -1 178 -19 19 -78 13 -161 -18z"/>
<path d="M23635 10529 c-183 -247 -396 -518 -525 -666 -39 -46 -69 -83 -66
-83 3 0 60 11 128 25 68 14 157 32 198 40 224 40 322 66 340 87 15 19 17 40
12 183 -5 175 6 269 55 460 40 160 44 177 41 187 -2 5 -84 -100 -183 -233z"/>
<path d="M17506 10525 c21 -32 41 -99 64 -215 40 -201 43 -277 20 -430 -13
-85 -40 -325 -40 -356 0 -13 6 -24 13 -24 15 0 138 125 188 190 l34 45 -2 120
c-3 116 17 353 37 438 10 46 8 51 -55 110 -76 71 -210 147 -261 147 -12 0 -12
-3 2 -25z"/>
<path d="M25678 10362 c-14 -15 -38 -45 -54 -66 l-29 -39 50 7 c28 4 64 9 82
12 l32 6 -17 36 c-33 73 -36 75 -64 44z"/>
<path d="M15881 10160 c23 -38 45 -70 49 -70 5 0 25 17 45 37 33 34 35 38 19
50 -22 16 -119 53 -139 53 -10 0 -1 -22 26 -70z"/>
<path d="M29441 10117 c34 -27 124 -156 155 -222 47 -104 61 -150 74 -258 34
-265 -33 -554 -207 -901 -107 -215 -169 -314 -394 -636 -147 -210 -269 -371
-557 -735 -163 -206 -170 -214 -241 -261 -87 -58 -179 -84 -294 -85 l-88 0 32
-41 c103 -129 285 -208 449 -193 94 9 203 50 276 105 50 38 143 147 354 419
36 46 90 115 121 155 100 126 297 397 398 546 278 413 421 713 492 1035 20 93
18 384 -4 465 -65 241 -250 460 -494 585 -68 35 -102 45 -72 22z"/>
<path d="M13763 10018 c139 -197 192 -357 191 -573 -2 -201 -56 -383 -195
-666 -49 -100 -89 -183 -89 -185 0 -11 49 23 105 71 152 133 275 267 427 470
118 158 111 138 93 236 -57 306 -230 544 -467 640 -84 35 -85 35 -65 7z"/>
<path d="M20997 9493 c-24 -27 -60 -66 -78 -88 -19 -22 -40 -46 -47 -54 -7 -7
-11 -15 -9 -17 3 -4 256 46 265 51 6 4 -69 155 -77 155 -5 0 -30 -21 -54 -47z"/>
<path d="M11719 9453 c70 -114 96 -282 72 -455 -14 -93 -55 -269 -101 -428
-16 -58 -30 -109 -30 -113 0 -5 12 -6 28 -3 15 3 53 10 85 16 97 19 100 26
112 265 11 211 39 390 84 535 l19 61 -56 45 c-57 45 -202 124 -228 124 -10 0
-5 -15 15 -47z"/>
<path d="M27885 9473 c-216 -8 -807 -58 -975 -82 -36 -6 -117 -17 -180 -25
-342 -46 -722 -103 -975 -147 -543 -93 -905 -157 -1155 -204 -41 -8 -148 -28
-238 -44 -193 -36 -454 -87 -722 -141 -107 -22 -287 -58 -400 -80 -113 -22
-250 -49 -305 -60 -55 -12 -199 -41 -320 -66 -121 -25 -272 -56 -335 -69 -63
-13 -216 -45 -340 -70 -240 -49 -499 -104 -1020 -215 -652 -139 -814 -173
-1290 -277 -584 -127 -607 -132 -980 -212 -52 -11 -189 -41 -305 -67 -115 -26
-237 -52 -270 -59 -52 -11 -339 -74 -545 -120 -36 -8 -207 -47 -380 -86 -173
-40 -342 -78 -375 -84 -109 -23 -248 -54 -410 -90 -88 -20 -221 -49 -295 -65
-74 -16 -184 -41 -245 -55 -60 -14 -200 -45 -310 -70 -110 -24 -312 -69 -450
-100 -137 -31 -290 -65 -340 -76 -109 -24 -417 -95 -500 -114 -33 -8 -253 -57
-490 -110 -236 -52 -479 -106 -540 -120 -132 -31 -264 -60 -485 -109 -91 -20
-212 -48 -270 -61 -146 -34 -305 -70 -440 -99 -122 -27 -229 -52 -480 -110
-85 -20 -210 -48 -276 -63 l-122 -26 -11 -56 c-11 -58 -61 -409 -80 -561 -26
-210 -43 -529 -37 -685 8 -213 30 -313 94 -436 73 -143 90 -277 53 -421 -27
-104 -64 -173 -126 -234 -104 -101 -242 -156 -396 -158 l-97 -1 29 -36 c46
-58 114 -116 168 -143 229 -116 558 -37 701 169 44 63 81 180 87 270 8 119
-11 213 -64 315 -24 47 -53 116 -63 154 -56 198 -45 611 30 1181 18 142 59
408 63 411 1 1 45 11 97 23 80 17 555 124 965 216 61 14 160 36 220 50 61 13
160 36 220 50 61 14 162 37 225 50 63 14 153 34 200 45 47 11 207 47 355 80
149 33 288 65 310 70 22 6 83 19 135 31 52 12 142 32 200 45 58 13 166 37 240
54 141 31 634 141 711 159 24 6 98 22 164 37 66 15 165 37 220 49 55 13 174
39 265 59 91 20 203 45 250 56 118 27 289 65 455 101 77 16 178 39 225 50 192
44 264 61 460 103 113 25 300 66 415 92 496 110 682 151 1065 234 157 34 301
66 320 70 19 5 67 15 105 23 39 8 237 51 440 95 344 75 861 186 1475 317 418
89 849 180 1115 235 138 28 302 62 365 75 63 13 205 43 315 65 110 22 220 45
245 51 75 17 683 138 878 174 101 19 213 41 250 49 61 14 337 66 762 145 91
17 282 51 425 76 143 24 283 49 310 55 61 12 583 95 755 120 69 10 188 28 265
39 115 17 387 51 605 76 192 23 560 47 782 52 l267 6 26 59 c14 32 29 74 32
93 5 32 4 35 -20 35 -14 0 -37 4 -51 10 -56 21 -448 41 -651 33z"/>
<path d="M16450 8918 c-64 -79 -449 -617 -459 -642 -4 -11 27 -6 174 29 61 14
173 39 250 56 77 16 149 34 161 38 22 9 114 131 114 151 0 6 -16 34 -36 63
-36 52 -73 126 -113 227 -12 30 -31 67 -44 82 l-22 27 -25 -31z"/>
<path d="M14653 7984 c-23 -20 -24 -24 -8 -20 11 3 32 8 48 12 15 3 27 12 27
20 0 22 -37 16 -67 -12z"/>
<path d="M10215 7695 c-714 -519 -1063 -734 -1438 -889 -124 -51 -371 -132
-472 -155 -49 -12 -106 -25 -125 -31 -89 -24 -278 -42 -375 -36 -143 8 -324
46 -440 91 -40 16 50 -67 136 -125 190 -127 503 -209 758 -197 229 10 570 98
868 223 85 35 117 55 169 103 74 70 180 124 272 141 79 14 117 36 457 261 105
70 196 133 202 140 6 8 21 59 32 114 12 55 29 127 37 160 24 92 62 295 55 295
-3 0 -64 -43 -136 -95z"/>
<path d="M12315 7504 c-234 -105 -488 -161 -803 -180 l-114 -6 -19 -32 c-38
-62 -30 -67 74 -41 50 12 146 34 212 49 120 26 193 42 490 111 88 21 205 47
260 59 l100 22 -46 27 c-25 15 -52 27 -60 27 -8 0 -50 -17 -94 -36z"/>
<path d="M9895 5818 c-147 -34 -187 -40 -256 -36 -38 2 -69 -1 -69 -6 0 -21
140 -144 195 -170 55 -27 144 -56 171 -56 8 0 14 31 19 83 3 45 11 109 15 141
5 33 8 61 7 61 -1 1 -38 -6 -82 -17z"/>
</g>
</svg>
